<svg width="200" height="240" viewBox="0 0 200 240" xmlns="http://www.w3.org/2000/svg">
  <!-- QR Code Background -->
  <rect width="200" height="200" fill="white" stroke="#dee2e6" stroke-width="2"/>
  
  <!-- QR Code Pattern Simulation -->
  <!-- Corner markers -->
  <rect x="10" y="10" width="30" height="30" fill="black"/>
  <rect x="15" y="15" width="20" height="20" fill="white"/>
  <rect x="20" y="20" width="10" height="10" fill="black"/>
  
  <rect x="160" y="10" width="30" height="30" fill="black"/>
  <rect x="165" y="15" width="20" height="20" fill="white"/>
  <rect x="170" y="20" width="10" height="10" fill="black"/>
  
  <rect x="10" y="160" width="30" height="30" fill="black"/>
  <rect x="15" y="165" width="20" height="20" fill="white"/>
  <rect x="20" y="170" width="10" height="10" fill="black"/>
  
  <!-- Data pattern simulation -->
  <!-- Row 1 -->
  <rect x="50" y="10" width="5" height="5" fill="black"/>
  <rect x="60" y="10" width="5" height="5" fill="black"/>
  <rect x="70" y="10" width="5" height="5" fill="black"/>
  <rect x="85" y="10" width="5" height="5" fill="black"/>
  <rect x="95" y="10" width="5" height="5" fill="black"/>
  <rect x="105" y="10" width="5" height="5" fill="black"/>
  <rect x="120" y="10" width="5" height="5" fill="black"/>
  <rect x="135" y="10" width="5" height="5" fill="black"/>
  
  <!-- Row 2 -->
  <rect x="50" y="20" width="5" height="5" fill="black"/>
  <rect x="65" y="20" width="5" height="5" fill="black"/>
  <rect x="75" y="20" width="5" height="5" fill="black"/>
  <rect x="90" y="20" width="5" height="5" fill="black"/>
  <rect x="110" y="20" width="5" height="5" fill="black"/>
  <rect x="125" y="20" width="5" height="5" fill="black"/>
  <rect x="140" y="20" width="5" height="5" fill="black"/>
  
  <!-- More complex pattern for realism -->
  <rect x="55" y="30" width="5" height="5" fill="black"/>
  <rect x="70" y="30" width="5" height="5" fill="black"/>
  <rect x="80" y="30" width="5" height="5" fill="black"/>
  <rect x="100" y="30" width="5" height="5" fill="black"/>
  <rect x="115" y="30" width="5" height="5" fill="black"/>
  <rect x="130" y="30" width="5" height="5" fill="black"/>
  
  <!-- Timing patterns -->
  <rect x="50" y="45" width="5" height="5" fill="black"/>
  <rect x="60" y="45" width="5" height="5" fill="black"/>
  <rect x="70" y="45" width="5" height="5" fill="black"/>
  <rect x="80" y="45" width="5" height="5" fill="black"/>
  <rect x="90" y="45" width="5" height="5" fill="black"/>
  <rect x="100" y="45" width="5" height="5" fill="black"/>
  <rect x="110" y="45" width="5" height="5" fill="black"/>
  <rect x="120" y="45" width="5" height="5" fill="black"/>
  <rect x="130" y="45" width="5" height="5" fill="black"/>
  <rect x="140" y="45" width="5" height="5" fill="black"/>
  <rect x="150" y="45" width="5" height="5" fill="black"/>
  
  <rect x="45" y="50" width="5" height="5" fill="black"/>
  <rect x="45" y="60" width="5" height="5" fill="black"/>
  <rect x="45" y="70" width="5" height="5" fill="black"/>
  <rect x="45" y="80" width="5" height="5" fill="black"/>
  <rect x="45" y="90" width="5" height="5" fill="black"/>
  <rect x="45" y="100" width="5" height="5" fill="black"/>
  <rect x="45" y="110" width="5" height="5" fill="black"/>
  <rect x="45" y="120" width="5" height="5" fill="black"/>
  <rect x="45" y="130" width="5" height="5" fill="black"/>
  <rect x="45" y="140" width="5" height="5" fill="black"/>
  <rect x="45" y="150" width="5" height="5" fill="black"/>
  
  <!-- Middle data patterns -->
  <rect x="70" y="70" width="5" height="5" fill="black"/>
  <rect x="80" y="70" width="5" height="5" fill="black"/>
  <rect x="100" y="70" width="5" height="5" fill="black"/>
  <rect x="120" y="70" width="5" height="5" fill="black"/>
  <rect x="140" y="70" width="5" height="5" fill="black"/>
  <rect x="160" y="70" width="5" height="5" fill="black"/>
  <rect x="180" y="70" width="5" height="5" fill="black"/>
  
  <!-- Additional random patterns for authenticity -->
  <rect x="60" y="80" width="5" height="5" fill="black"/>
  <rect x="90" y="80" width="5" height="5" fill="black"/>
  <rect x="110" y="80" width="5" height="5" fill="black"/>
  <rect x="130" y="80" width="5" height="5" fill="black"/>
  <rect x="150" y="80" width="5" height="5" fill="black"/>
  <rect x="170" y="80" width="5" height="5" fill="black"/>
  <rect x="190" y="80" width="5" height="5" fill="black"/>
  
  <rect x="50" y="110" width="5" height="5" fill="black"/>
  <rect x="70" y="110" width="5" height="5" fill="black"/>
  <rect x="90" y="110" width="5" height="5" fill="black"/>
  <rect x="110" y="110" width="5" height="5" fill="black"/>
  <rect x="130" y="110" width="5" height="5" fill="black"/>
  <rect x="150" y="110" width="5" height="5" fill="black"/>
  <rect x="170" y="110" width="5" height="5" fill="black"/>
  <rect x="190" y="110" width="5" height="5" fill="black"/>
  
  <rect x="60" y="120" width="5" height="5" fill="black"/>
  <rect x="80" y="120" width="5" height="5" fill="black"/>
  <rect x="100" y="120" width="5" height="5" fill="black"/>
  <rect x="120" y="120" width="5" height="5" fill="black"/>
  <rect x="140" y="120" width="5" height="5" fill="black"/>
  <rect x="160" y="120" width="5" height="5" fill="black"/>
  <rect x="180" y="120" width="5" height="5" fill="black"/>
  
  <rect x="50" y="130" width="5" height="5" fill="black"/>
  <rect x="70" y="130" width="5" height="5" fill="black"/>
  <rect x="90" y="130" width="5" height="5" fill="black"/>
  <rect x="110" y="130" width="5" height="5" fill="black"/>
  <rect x="130" y="130" width="5" height="5" fill="black"/>
  <rect x="150" y="130" width="5" height="5" fill="black"/>
  <rect x="170" y="130" width="5" height="5" fill="black"/>
  <rect x="190" y="130" width="5" height="5" fill="black"/>
  
  <rect x="60" y="140" width="5" height="5" fill="black"/>
  <rect x="80" y="140" width="5" height="5" fill="black"/>
  <rect x="100" y="140" width="5" height="5" fill="black"/>
  <rect x="120" y="140" width="5" height="5" fill="black"/>
  <rect x="140" y="140" width="5" height="5" fill="black"/>
  <rect x="160" y="140" width="5" height="5" fill="black"/>
  <rect x="180" y="140" width="5" height="5" fill="black"/>
  
  <!-- Bottom patterns -->
  <rect x="50" y="180" width="5" height="5" fill="black"/>
  <rect x="70" y="180" width="5" height="5" fill="black"/>
  <rect x="90" y="180" width="5" height="5" fill="black"/>
  <rect x="110" y="180" width="5" height="5" fill="black"/>
  <rect x="130" y="180" width="5" height="5" fill="black"/>
  <rect x="150" y="180" width="5" height="5" fill="black"/>
  <rect x="170" y="180" width="5" height="5" fill="black"/>
  <rect x="190" y="180" width="5" height="5" fill="black"/>
  
  <!-- GPay branding -->
  <text x="100" y="220" font-family="Arial, sans-serif" font-size="14" font-weight="bold" text-anchor="middle" fill="#4285f4">GPay QR Code</text>
  <text x="100" y="235" font-family="monospace" font-size="11" text-anchor="middle" fill="#666">anand@oksbi</text>
</svg>